<svg xmlns="http://www.w3.org/2000/svg" viewBox="0 0 64 64">
  <rect x="2" y="2" width="60" height="60" rx="8" ry="8" fill="#a4c9ff" />
  <svg x="13" y="8" width="38" height="48" viewBox="242 195 127 209" aria-hidden="true">
    <g transform="translate(0 600) scale(0.1 -0.1)" fill="#000000" stroke="none">
      <path d="M2874 4035 c-199 -43 -377 -215 -429 -415 -23 -84 -23 -219 0 -295 41 -142 144 -276 269 -349 l66 -39 0 -397 0 -396 65 -58 65 -57 0 518 0 518 -69 32 c-98 46 -164 109 -209 202 -35 71 -37 82 -37 171 0 86 3 101 32 162 103 218 345 306 557 202 29 -14 69 -41 89 -59 l37 -34 -157 -175 c-87 -96 -162 -175 -168 -175 -5 -1 -47 36 -92 81 l-83 82 -55 -54 c-30 -30 -54 -58 -53 -62 5 -13 277 -288 285 -287 4 0 67 66 138 146 72 80 137 153 146 162 19 20 183 199 314 344 l98 109 -54 54 c-29 30 -57 54 -62 54 -8 0 -52 -46 -119 -124 l-25 -30 -49 43 c-132 116 -323 165 -500 126z" />
      <path d="M3479 3547 c-61 -66 -67 -77 -73 -130 -10 -79 -64 -183 -126 -241 -61 -57 -154 -103 -226 -112 l-54 -6 0 -549 c0 -437 3 -549 13 -549 7 0 56 44 110 98 90 90 97 100 97 137 0 35 -7 47 -67 108 l-68 68 69 65 70 64 -67 68 -68 68 66 66 65 66 0 85 0 86 59 31 c126 67 248 228 281 370 21 90 16 280 -8 280 -4 0 -37 -33 -73 -73z" />
    </g>
  </svg>
</svg>
